STARTFONT 2.1
COMMENT $Header: courR08.bdf,v 1.2 96/01/23 19:22:59 peterlin Exp $
COMMENT 
COMMENT Copyright International Business Machines,Corp. 1991
COMMENT IBM Courier is a Trademark of the IBM Corporation.
COMMENT 
COMMENT Automatic rendering from Adobe Type 1 outline:
COMMENT Primoz Peterlin <primoz.peterlin@biofiz.mf.uni-lj.si>
COMMENT cour.pfa rendered at 9.000000 points
COMMENT Checksum eb69a063
FONT -ibm-courier-medium-r-normal--8-80-75-75-m-40-iso8859-2
SIZE 8 75 75
FONTBOUNDINGBOX 6 9 0 -1
STARTPROPERTIES 3
FONT_ASCENT 7
FONT_DESCENT 1
DEFAULT_CHAR 32
ENDPROPERTIES
CHARS 191
STARTCHAR space
ENCODING 32
SWIDTH 635 0
DWIDTH 6 0
BBX 0 0 0 1
BITMAP
ENDCHAR
STARTCHAR exclam
ENCODING 33
SWIDTH 635 0
DWIDTH 6 0
BBX 1 5 2 1
BITMAP
80
80
80
00
80
ENDCHAR
STARTCHAR quotedbl
ENCODING 34
SWIDTH 635 0
DWIDTH 6 0
BBX 3 3 1 3
BITMAP
a0
a0
a0
ENDCHAR
STARTCHAR numbersign
ENCODING 35
SWIDTH 635 0
DWIDTH 6 0
BBX 5 7 1 0
BITMAP
50
50
f8
50
f8
50
50
ENDCHAR
STARTCHAR dollar
ENCODING 36
SWIDTH 635 0
DWIDTH 6 0
BBX 4 7 1 0
BITMAP
40
f0
c0
60
50
f0
40
ENDCHAR
STARTCHAR percent
ENCODING 37
SWIDTH 635 0
DWIDTH 6 0
BBX 5 5 0 1
BITMAP
c8
b0
20
68
98
ENDCHAR
STARTCHAR ampersand
ENCODING 38
SWIDTH 635 0
DWIDTH 6 0
BBX 4 5 1 1
BITMAP
70
40
d0
b0
d0
ENDCHAR
STARTCHAR quoteright
ENCODING 39
SWIDTH 635 0
DWIDTH 6 0
BBX 2 2 1 4
BITMAP
80
80
ENDCHAR
STARTCHAR parenleft
ENCODING 40
SWIDTH 635 0
DWIDTH 6 0
BBX 2 7 2 0
BITMAP
40
40
80
80
80
40
40
ENDCHAR
STARTCHAR parenright
ENCODING 41
SWIDTH 635 0
DWIDTH 6 0
BBX 2 7 1 0
BITMAP
80
80
40
40
40
80
80
ENDCHAR
STARTCHAR asterisk
ENCODING 42
SWIDTH 635 0
DWIDTH 6 0
BBX 3 4 1 2
BITMAP
40
e0
40
a0
ENDCHAR
STARTCHAR plus
ENCODING 43
SWIDTH 635 0
DWIDTH 6 0
BBX 5 5 1 1
BITMAP
20
20
f8
20
20
ENDCHAR
STARTCHAR comma
ENCODING 44
SWIDTH 635 0
DWIDTH 6 0
BBX 2 2 1 0
BITMAP
40
80
ENDCHAR
STARTCHAR minus
ENCODING 45
SWIDTH 635 0
DWIDTH 6 0
BBX 4 1 1 3
BITMAP
f0
ENDCHAR
STARTCHAR period
ENCODING 46
SWIDTH 635 0
DWIDTH 6 0
BBX 1 1 2 1
BITMAP
80
ENDCHAR
STARTCHAR slash
ENCODING 47
SWIDTH 635 0
DWIDTH 6 0
BBX 4 8 1 0
BITMAP
10
10
20
20
40
40
80
80
ENDCHAR
STARTCHAR zero
ENCODING 48
SWIDTH 635 0
DWIDTH 6 0
BBX 4 5 1 1
BITMAP
60
90
90
90
60
ENDCHAR
STARTCHAR one
ENCODING 49
SWIDTH 635 0
DWIDTH 6 0
BBX 4 5 1 1
BITMAP
40
c0
40
40
e0
ENDCHAR
STARTCHAR two
ENCODING 50
SWIDTH 635 0
DWIDTH 6 0
BBX 4 5 1 1
BITMAP
60
90
20
40
f0
ENDCHAR
STARTCHAR three
ENCODING 51
SWIDTH 635 0
DWIDTH 6 0
BBX 3 5 1 1
BITMAP
c0
20
40
20
c0
ENDCHAR
STARTCHAR four
ENCODING 52
SWIDTH 635 0
DWIDTH 6 0
BBX 4 5 0 1
BITMAP
20
60
a0
f0
20
ENDCHAR
STARTCHAR five
ENCODING 53
SWIDTH 635 0
DWIDTH 6 0
BBX 4 5 1 1
BITMAP
e0
80
e0
10
e0
ENDCHAR
STARTCHAR six
ENCODING 54
SWIDTH 635 0
DWIDTH 6 0
BBX 4 5 1 1
BITMAP
60
80
e0
90
60
ENDCHAR
STARTCHAR seven
ENCODING 55
SWIDTH 635 0
DWIDTH 6 0
BBX 4 5 1 1
BITMAP
f0
10
20
20
40
ENDCHAR
STARTCHAR eight
ENCODING 56
SWIDTH 635 0
DWIDTH 6 0
BBX 4 5 1 1
BITMAP
60
90
60
90
60
ENDCHAR
STARTCHAR nine
ENCODING 57
SWIDTH 635 0
DWIDTH 6 0
BBX 4 5 1 1
BITMAP
60
90
70
10
e0
ENDCHAR
STARTCHAR colon
ENCODING 58
SWIDTH 635 0
DWIDTH 6 0
BBX 1 3 2 1
BITMAP
80
00
80
ENDCHAR
STARTCHAR semicolon
ENCODING 59
SWIDTH 635 0
DWIDTH 6 0
BBX 1 4 2 0
BITMAP
80
00
80
80
ENDCHAR
STARTCHAR less
ENCODING 60
SWIDTH 635 0
DWIDTH 6 0
BBX 4 4 1 2
BITMAP
30
c0
c0
30
ENDCHAR
STARTCHAR equal
ENCODING 61
SWIDTH 635 0
DWIDTH 6 0
BBX 4 3 1 2
BITMAP
f0
00
f0
ENDCHAR
STARTCHAR greater
ENCODING 62
SWIDTH 635 0
DWIDTH 6 0
BBX 4 4 1 2
BITMAP
c0
30
30
c0
ENDCHAR
STARTCHAR question
ENCODING 63
SWIDTH 635 0
DWIDTH 6 0
BBX 4 5 1 1
BITMAP
e0
10
60
00
40
ENDCHAR
STARTCHAR at
ENCODING 64
SWIDTH 635 0
DWIDTH 6 0
BBX 5 5 0 1
BITMAP
70
a8
d8
b8
60
ENDCHAR
STARTCHAR A
ENCODING 65
SWIDTH 635 0
DWIDTH 6 0
BBX 5 5 0 1
BITMAP
70
50
50
70
d8
ENDCHAR
STARTCHAR B
ENCODING 66
SWIDTH 635 0
DWIDTH 6 0
BBX 5 5 0 1
BITMAP
f0
48
70
48
f0
ENDCHAR
STARTCHAR C
ENCODING 67
SWIDTH 635 0
DWIDTH 6 0
BBX 5 5 0 1
BITMAP
78
88
80
80
78
ENDCHAR
STARTCHAR D
ENCODING 68
SWIDTH 635 0
DWIDTH 6 0
BBX 5 5 0 1
BITMAP
f0
48
48
48
f0
ENDCHAR
STARTCHAR E
ENCODING 69
SWIDTH 635 0
DWIDTH 6 0
BBX 4 5 1 1
BITMAP
f0
50
60
50
f0
ENDCHAR
STARTCHAR F
ENCODING 70
SWIDTH 635 0
DWIDTH 6 0
BBX 4 5 1 1
BITMAP
f0
50
60
40
c0
ENDCHAR
STARTCHAR G
ENCODING 71
SWIDTH 635 0
DWIDTH 6 0
BBX 5 5 0 1
BITMAP
70
88
98
88
78
ENDCHAR
STARTCHAR H
ENCODING 72
SWIDTH 635 0
DWIDTH 6 0
BBX 5 5 0 1
BITMAP
d8
50
70
50
d8
ENDCHAR
STARTCHAR I
ENCODING 73
SWIDTH 635 0
DWIDTH 6 0
BBX 3 5 1 1
BITMAP
e0
40
40
40
e0
ENDCHAR
STARTCHAR J
ENCODING 74
SWIDTH 635 0
DWIDTH 6 0
BBX 5 5 0 1
BITMAP
38
10
10
90
60
ENDCHAR
STARTCHAR K
ENCODING 75
SWIDTH 635 0
DWIDTH 6 0
BBX 5 5 1 1
BITMAP
c8
50
60
50
c8
ENDCHAR
STARTCHAR L
ENCODING 76
SWIDTH 635 0
DWIDTH 6 0
BBX 4 5 1 1
BITMAP
c0
40
40
50
f0
ENDCHAR
STARTCHAR M
ENCODING 77
SWIDTH 635 0
DWIDTH 6 0
BBX 6 5 0 1
BITMAP
88
d8
a8
88
d8
ENDCHAR
STARTCHAR N
ENCODING 78
SWIDTH 635 0
DWIDTH 6 0
BBX 6 5 0 1
BITMAP
c8
68
58
48
c8
ENDCHAR
STARTCHAR O
ENCODING 79
SWIDTH 635 0
DWIDTH 6 0
BBX 5 5 0 1
BITMAP
70
88
88
88
70
ENDCHAR
STARTCHAR P
ENCODING 80
SWIDTH 635 0
DWIDTH 6 0
BBX 4 5 1 1
BITMAP
e0
50
60
40
c0
ENDCHAR
STARTCHAR Q
ENCODING 81
SWIDTH 635 0
DWIDTH 6 0
BBX 5 6 0 0
BITMAP
70
88
88
88
70
30
ENDCHAR
STARTCHAR R
ENCODING 82
SWIDTH 635 0
DWIDTH 6 0
BBX 5 5 0 1
BITMAP
f0
58
60
50
c8
ENDCHAR
STARTCHAR S
ENCODING 83
SWIDTH 635 0
DWIDTH 6 0
BBX 5 5 1 1
BITMAP
e8
90
60
90
e0
ENDCHAR
STARTCHAR T
ENCODING 84
SWIDTH 635 0
DWIDTH 6 0
BBX 5 5 0 1
BITMAP
f8
a8
20
20
70
ENDCHAR
STARTCHAR U
ENCODING 85
SWIDTH 635 0
DWIDTH 6 0
BBX 5 5 0 1
BITMAP
d8
48
48
48
78
ENDCHAR
STARTCHAR V
ENCODING 86
SWIDTH 635 0
DWIDTH 6 0
BBX 5 5 0 1
BITMAP
d8
50
50
20
20
ENDCHAR
STARTCHAR W
ENCODING 87
SWIDTH 635 0
DWIDTH 6 0
BBX 5 5 0 1
BITMAP
d8
a8
f8
50
50
ENDCHAR
STARTCHAR X
ENCODING 88
SWIDTH 635 0
DWIDTH 6 0
BBX 5 5 0 1
BITMAP
d8
50
20
50
d8
ENDCHAR
STARTCHAR Y
ENCODING 89
SWIDTH 635 0
DWIDTH 6 0
BBX 5 5 0 1
BITMAP
d8
50
20
20
70
ENDCHAR
STARTCHAR Z
ENCODING 90
SWIDTH 635 0
DWIDTH 6 0
BBX 4 5 1 1
BITMAP
f0
a0
40
90
f0
ENDCHAR
STARTCHAR bracketleft
ENCODING 91
SWIDTH 635 0
DWIDTH 6 0
BBX 2 7 3 0
BITMAP
c0
80
80
80
80
80
c0
ENDCHAR
STARTCHAR backslash
ENCODING 92
SWIDTH 635 0
DWIDTH 6 0
BBX 4 8 1 0
BITMAP
80
80
40
40
20
20
10
10
ENDCHAR
STARTCHAR bracketright
ENCODING 93
SWIDTH 635 0
DWIDTH 6 0
BBX 2 7 1 0
BITMAP
c0
40
40
40
40
40
c0
ENDCHAR
STARTCHAR asciicircum
ENCODING 94
SWIDTH 635 0
DWIDTH 6 0
BBX 4 4 1 2
BITMAP
60
60
90
90
ENDCHAR
STARTCHAR underscore
ENCODING 95
SWIDTH 635 0
DWIDTH 6 0
BBX 6 1 0 0
BITMAP
fc
ENDCHAR
STARTCHAR quoteleft
ENCODING 96
SWIDTH 635 0
DWIDTH 6 0
BBX 2 2 1 4
BITMAP
40
40
ENDCHAR
STARTCHAR a
ENCODING 97
SWIDTH 635 0
DWIDTH 6 0
BBX 5 4 0 1
BITMAP
70
70
90
78
ENDCHAR
STARTCHAR b
ENCODING 98
SWIDTH 635 0
DWIDTH 6 0
BBX 5 5 0 1
BITMAP
40
70
48
48
f0
ENDCHAR
STARTCHAR c
ENCODING 99
SWIDTH 635 0
DWIDTH 6 0
BBX 5 4 0 1
BITMAP
70
88
80
70
ENDCHAR
STARTCHAR d
ENCODING 100
SWIDTH 635 0
DWIDTH 6 0
BBX 5 5 0 1
BITMAP
18
78
88
88
78
ENDCHAR
STARTCHAR e
ENCODING 101
SWIDTH 635 0
DWIDTH 6 0
BBX 5 4 0 1
BITMAP
78
b8
c0
78
ENDCHAR
STARTCHAR f
ENCODING 102
SWIDTH 635 0
DWIDTH 6 0
BBX 4 5 1 1
BITMAP
70
e0
40
40
e0
ENDCHAR
STARTCHAR g
ENCODING 103
SWIDTH 635 0
DWIDTH 6 0
BBX 5 6 0 -1
BITMAP
78
88
98
68
08
30
ENDCHAR
STARTCHAR h
ENCODING 104
SWIDTH 635 0
DWIDTH 6 0
BBX 5 5 0 1
BITMAP
40
70
48
48
d8
ENDCHAR
STARTCHAR i
ENCODING 105
SWIDTH 635 0
DWIDTH 6 0
BBX 3 6 1 1
BITMAP
40
00
c0
40
40
e0
ENDCHAR
STARTCHAR j
ENCODING 106
SWIDTH 635 0
DWIDTH 6 0
BBX 3 8 1 -1
BITMAP
20
00
e0
20
20
20
20
c0
ENDCHAR
STARTCHAR k
ENCODING 107
SWIDTH 635 0
DWIDTH 6 0
BBX 5 5 0 1
BITMAP
40
58
60
50
d8
ENDCHAR
STARTCHAR l
ENCODING 108
SWIDTH 635 0
DWIDTH 6 0
BBX 3 5 1 1
BITMAP
c0
40
40
40
e0
ENDCHAR
STARTCHAR m
ENCODING 109
SWIDTH 635 0
DWIDTH 6 0
BBX 5 4 0 1
BITMAP
d8
a8
a8
a8
ENDCHAR
STARTCHAR n
ENCODING 110
SWIDTH 635 0
DWIDTH 6 0
BBX 5 4 0 1
BITMAP
f0
48
48
d8
ENDCHAR
STARTCHAR o
ENCODING 111
SWIDTH 635 0
DWIDTH 6 0
BBX 5 4 0 1
BITMAP
70
88
88
70
ENDCHAR
STARTCHAR p
ENCODING 112
SWIDTH 635 0
DWIDTH 6 0
BBX 5 6 0 -1
BITMAP
f0
48
48
70
40
e0
ENDCHAR
STARTCHAR q
ENCODING 113
SWIDTH 635 0
DWIDTH 6 0
BBX 5 6 0 -1
BITMAP
78
88
88
78
08
18
ENDCHAR
STARTCHAR r
ENCODING 114
SWIDTH 635 0
DWIDTH 6 0
BBX 4 4 1 1
BITMAP
f0
40
40
e0
ENDCHAR
STARTCHAR s
ENCODING 115
SWIDTH 635 0
DWIDTH 6 0
BBX 4 4 1 1
BITMAP
70
e0
10
e0
ENDCHAR
STARTCHAR t
ENCODING 116
SWIDTH 635 0
DWIDTH 6 0
BBX 4 5 1 1
BITMAP
40
e0
40
40
30
ENDCHAR
STARTCHAR u
ENCODING 117
SWIDTH 635 0
DWIDTH 6 0
BBX 5 4 0 1
BITMAP
d8
48
48
78
ENDCHAR
STARTCHAR v
ENCODING 118
SWIDTH 635 0
DWIDTH 6 0
BBX 5 4 0 1
BITMAP
d8
50
50
20
ENDCHAR
STARTCHAR w
ENCODING 119
SWIDTH 635 0
DWIDTH 6 0
BBX 6 4 0 1
BITMAP
cc
68
78
50
ENDCHAR
STARTCHAR x
ENCODING 120
SWIDTH 635 0
DWIDTH 6 0
BBX 5 4 0 1
BITMAP
d8
20
50
d8
ENDCHAR
STARTCHAR y
ENCODING 121
SWIDTH 635 0
DWIDTH 6 0
BBX 5 6 0 -1
BITMAP
d8
50
50
20
20
c0
ENDCHAR
STARTCHAR z
ENCODING 122
SWIDTH 635 0
DWIDTH 6 0
BBX 4 4 1 1
BITMAP
f0
20
40
f0
ENDCHAR
STARTCHAR braceleft
ENCODING 123
SWIDTH 635 0
DWIDTH 6 0
BBX 3 7 2 0
BITMAP
20
40
40
80
40
40
20
ENDCHAR
STARTCHAR bar
ENCODING 124
SWIDTH 635 0
DWIDTH 6 0
BBX 1 8 2 -1
BITMAP
80
80
80
80
80
80
80
80
ENDCHAR
STARTCHAR braceright
ENCODING 125
SWIDTH 635 0
DWIDTH 6 0
BBX 3 7 1 0
BITMAP
80
40
40
20
40
40
80
ENDCHAR
STARTCHAR asciitilde
ENCODING 126
SWIDTH 635 0
DWIDTH 6 0
BBX 4 2 1 3
BITMAP
50
a0
ENDCHAR
STARTCHAR space
ENCODING 160
SWIDTH 635 0
DWIDTH 6 0
BBX 0 0 0 1
BITMAP
ENDCHAR
STARTCHAR Aogonek
ENCODING 161
SWIDTH 635 0
DWIDTH 6 0
BBX 5 6 0 0
BITMAP
70
50
50
70
d8
08
ENDCHAR
STARTCHAR breve
ENCODING 162
SWIDTH 635 0
DWIDTH 6 0
BBX 3 1 1 5
BITMAP
60
ENDCHAR
STARTCHAR Lslash
ENCODING 163
SWIDTH 635 0
DWIDTH 6 0
BBX 4 5 1 1
BITMAP
c0
60
c0
50
f0
ENDCHAR
STARTCHAR currency
ENCODING 164
SWIDTH 635 0
DWIDTH 6 0
BBX 4 4 1 2
BITMAP
90
60
60
90
ENDCHAR
STARTCHAR Lcaron
ENCODING 165
SWIDTH 635 0
DWIDTH 6 0
BBX 5 7 1 1
BITMAP
00
00
e8
48
40
50
f0
ENDCHAR
STARTCHAR Sacute
ENCODING 166
SWIDTH 635 0
DWIDTH 6 0
BBX 5 7 1 1
BITMAP
40
00
e8
90
60
90
e0
ENDCHAR
STARTCHAR section
ENCODING 167
SWIDTH 635 0
DWIDTH 6 0
BBX 4 6 1 0
BITMAP
70
40
a0
50
20
e0
ENDCHAR
STARTCHAR dieresis
ENCODING 168
SWIDTH 635 0
DWIDTH 6 0
BBX 2 1 2 5
BITMAP
c0
ENDCHAR
STARTCHAR Scaron
ENCODING 169
SWIDTH 635 0
DWIDTH 6 0
BBX 5 7 1 1
BITMAP
60
00
e8
90
60
90
e0
ENDCHAR
STARTCHAR Scedilla
ENCODING 170
SWIDTH 635 0
DWIDTH 6 0
BBX 5 7 1 -1
BITMAP
e8
90
60
90
e0
20
60
ENDCHAR
STARTCHAR Tcaron
ENCODING 171
SWIDTH 635 0
DWIDTH 6 0
BBX 5 7 0 1
BITMAP
30
00
f8
a8
20
20
70
ENDCHAR
STARTCHAR Zacute
ENCODING 172
SWIDTH 635 0
DWIDTH 6 0
BBX 4 7 1 1
BITMAP
40
00
f0
a0
40
90
f0
ENDCHAR
STARTCHAR hyphen
ENCODING 173
SWIDTH 635 0
DWIDTH 6 0
BBX 2 1 2 3
BITMAP
c0
ENDCHAR
STARTCHAR Zcaron
ENCODING 174
SWIDTH 635 0
DWIDTH 6 0
BBX 4 7 1 1
BITMAP
60
00
f0
a0
40
90
f0
ENDCHAR
STARTCHAR Zdotaccent
ENCODING 175
SWIDTH 635 0
DWIDTH 6 0
BBX 4 7 1 1
BITMAP
40
00
f0
a0
40
90
f0
ENDCHAR
STARTCHAR degree
ENCODING 176
SWIDTH 635 0
DWIDTH 6 0
BBX 3 2 1 4
BITMAP
e0
e0
ENDCHAR
STARTCHAR aogonek
ENCODING 177
SWIDTH 635 0
DWIDTH 6 0
BBX 5 5 0 0
BITMAP
70
70
90
78
18
ENDCHAR
STARTCHAR ogonek
ENCODING 178
SWIDTH 635 0
DWIDTH 6 0
BBX 2 1 2 0
BITMAP
c0
ENDCHAR
STARTCHAR lslash
ENCODING 179
SWIDTH 635 0
DWIDTH 6 0
BBX 3 5 1 1
BITMAP
c0
60
c0
40
e0
ENDCHAR
STARTCHAR acute
ENCODING 180
SWIDTH 635 0
DWIDTH 6 0
BBX 2 1 2 5
BITMAP
80
ENDCHAR
STARTCHAR lcaron
ENCODING 181
SWIDTH 635 0
DWIDTH 6 0
BBX 5 5 1 1
BITMAP
68
50
40
40
e0
ENDCHAR
STARTCHAR sacute
ENCODING 182
SWIDTH 635 0
DWIDTH 6 0
BBX 4 5 1 1
BITMAP
20
70
e0
10
e0
ENDCHAR
STARTCHAR caron
ENCODING 183
SWIDTH 635 0
DWIDTH 6 0
BBX 2 1 2 5
BITMAP
40
ENDCHAR
STARTCHAR cedilla
ENCODING 184
SWIDTH 635 0
DWIDTH 6 0
BBX 2 3 2 -1
BITMAP
80
c0
c0
ENDCHAR
STARTCHAR scaron
ENCODING 185
SWIDTH 635 0
DWIDTH 6 0
BBX 4 5 1 1
BITMAP
60
70
e0
10
e0
ENDCHAR
STARTCHAR scedilla
ENCODING 186
SWIDTH 635 0
DWIDTH 6 0
BBX 4 6 1 -1
BITMAP
70
e0
10
e0
20
60
ENDCHAR
STARTCHAR tcaron
ENCODING 187
SWIDTH 635 0
DWIDTH 6 0
BBX 4 5 1 1
BITMAP
50
f0
40
40
30
ENDCHAR
STARTCHAR zacute
ENCODING 188
SWIDTH 635 0
DWIDTH 6 0
BBX 4 5 1 1
BITMAP
40
f0
20
40
f0
ENDCHAR
STARTCHAR hungarumlaut
ENCODING 189
SWIDTH 635 0
DWIDTH 6 0
BBX 3 1 1 5
BITMAP
a0
ENDCHAR
STARTCHAR zcaron
ENCODING 190
SWIDTH 635 0
DWIDTH 6 0
BBX 4 5 1 1
BITMAP
20
f0
40
40
f0
ENDCHAR
STARTCHAR zdotaccent
ENCODING 191
SWIDTH 635 0
DWIDTH 6 0
BBX 4 5 1 1
BITMAP
40
f0
20
40
f0
ENDCHAR
STARTCHAR Racute
ENCODING 192
SWIDTH 635 0
DWIDTH 6 0
BBX 5 7 0 1
BITMAP
20
00
f0
58
60
50
c8
ENDCHAR
STARTCHAR Aacute
ENCODING 193
SWIDTH 635 0
DWIDTH 6 0
BBX 5 7 0 1
BITMAP
20
00
70
50
50
70
d8
ENDCHAR
STARTCHAR Acircumflex
ENCODING 194
SWIDTH 635 0
DWIDTH 6 0
BBX 5 7 0 1
BITMAP
30
00
70
50
50
70
d8
ENDCHAR
STARTCHAR Abreve
ENCODING 195
SWIDTH 635 0
DWIDTH 6 0
BBX 5 7 0 1
BITMAP
50
20
70
50
50
70
d8
ENDCHAR
STARTCHAR Adieresis
ENCODING 196
SWIDTH 635 0
DWIDTH 6 0
BBX 5 7 0 1
BITMAP
50
00
70
50
50
70
d8
ENDCHAR
STARTCHAR Lacute
ENCODING 197
SWIDTH 635 0
DWIDTH 6 0
BBX 4 7 1 1
BITMAP
40
00
c0
40
40
50
f0
ENDCHAR
STARTCHAR Cacute
ENCODING 198
SWIDTH 635 0
DWIDTH 6 0
BBX 5 7 0 1
BITMAP
20
00
78
88
80
80
78
ENDCHAR
STARTCHAR Ccedilla
ENCODING 199
SWIDTH 635 0
DWIDTH 6 0
BBX 5 7 0 -1
BITMAP
78
88
80
80
78
10
30
ENDCHAR
STARTCHAR Ccaron
ENCODING 200
SWIDTH 635 0
DWIDTH 6 0
BBX 5 7 0 1
BITMAP
30
00
78
88
80
80
78
ENDCHAR
STARTCHAR Eacute
ENCODING 201
SWIDTH 635 0
DWIDTH 6 0
BBX 4 7 1 1
BITMAP
40
00
f0
50
60
50
f0
ENDCHAR
STARTCHAR Eogonek
ENCODING 202
SWIDTH 635 0
DWIDTH 6 0
BBX 4 6 1 0
BITMAP
f0
50
60
50
f0
20
ENDCHAR
STARTCHAR Edieresis
ENCODING 203
SWIDTH 635 0
DWIDTH 6 0
BBX 4 7 1 1
BITMAP
60
00
f0
50
60
50
f0
ENDCHAR
STARTCHAR Ecaron
ENCODING 204
SWIDTH 635 0
DWIDTH 6 0
BBX 4 7 1 1
BITMAP
60
00
f0
50
60
50
f0
ENDCHAR
STARTCHAR Iacute
ENCODING 205
SWIDTH 635 0
DWIDTH 6 0
BBX 3 7 1 1
BITMAP
40
00
e0
40
40
40
e0
ENDCHAR
STARTCHAR Icircumflex
ENCODING 206
SWIDTH 635 0
DWIDTH 6 0
BBX 3 7 1 1
BITMAP
60
00
e0
40
40
40
e0
ENDCHAR
STARTCHAR Dcaron
ENCODING 207
SWIDTH 635 0
DWIDTH 6 0
BBX 5 7 0 1
BITMAP
30
00
f0
48
48
48
f0
ENDCHAR
STARTCHAR Eth
ENCODING 208
SWIDTH 635 0
DWIDTH 6 0
BBX 5 5 0 1
BITMAP
f0
48
e8
48
f0
ENDCHAR
STARTCHAR Nacute
ENCODING 209
SWIDTH 635 0
DWIDTH 6 0
BBX 5 7 0 1
BITMAP
20
00
d8
48
68
58
c8
ENDCHAR
STARTCHAR Ncaron
ENCODING 210
SWIDTH 635 0
DWIDTH 6 0
BBX 5 7 0 1
BITMAP
30
00
d8
48
68
58
c8
ENDCHAR
STARTCHAR Oacute
ENCODING 211
SWIDTH 635 0
DWIDTH 6 0
BBX 5 7 0 1
BITMAP
20
00
70
88
88
88
70
ENDCHAR
STARTCHAR Ocircumflex
ENCODING 212
SWIDTH 635 0
DWIDTH 6 0
BBX 5 7 0 1
BITMAP
30
00
70
88
88
88
70
ENDCHAR
STARTCHAR Ohungarumlaut
ENCODING 213
SWIDTH 635 0
DWIDTH 6 0
BBX 5 7 0 1
BITMAP
50
00
70
88
88
88
70
ENDCHAR
STARTCHAR Odieresis
ENCODING 214
SWIDTH 635 0
DWIDTH 6 0
BBX 5 7 0 1
BITMAP
50
00
70
88
88
88
70
ENDCHAR
STARTCHAR multiply
ENCODING 215
SWIDTH 635 0
DWIDTH 6 0
BBX 3 3 1 2
BITMAP
a0
40
a0
ENDCHAR
STARTCHAR Rcaron
ENCODING 216
SWIDTH 635 0
DWIDTH 6 0
BBX 5 7 0 1
BITMAP
30
00
f0
58
60
50
c8
ENDCHAR
STARTCHAR Uring
ENCODING 217
SWIDTH 635 0
DWIDTH 6 0
BBX 5 7 0 1
BITMAP
30
20
d8
48
48
48
78
ENDCHAR
STARTCHAR Uacute
ENCODING 218
SWIDTH 635 0
DWIDTH 6 0
BBX 5 7 0 1
BITMAP
20
00
d8
48
48
48
78
ENDCHAR
STARTCHAR Uhungarumlaut
ENCODING 219
SWIDTH 635 0
DWIDTH 6 0
BBX 5 7 0 1
BITMAP
50
00
d8
48
48
48
78
ENDCHAR
STARTCHAR Udieresis
ENCODING 220
SWIDTH 635 0
DWIDTH 6 0
BBX 5 7 0 1
BITMAP
30
00
d8
48
48
48
78
ENDCHAR
STARTCHAR Yacute
ENCODING 221
SWIDTH 635 0
DWIDTH 6 0
BBX 5 7 0 1
BITMAP
20
00
d8
50
20
20
70
ENDCHAR
STARTCHAR Tcedilla
ENCODING 222
SWIDTH 635 0
DWIDTH 6 0
BBX 5 7 0 -1
BITMAP
f8
a8
20
20
70
20
60
ENDCHAR
STARTCHAR germandbls
ENCODING 223
SWIDTH 635 0
DWIDTH 6 0
BBX 5 5 1 1
BITMAP
30
48
50
48
d0
ENDCHAR
STARTCHAR racute
ENCODING 224
SWIDTH 635 0
DWIDTH 6 0
BBX 4 5 1 1
BITMAP
40
f0
40
40
e0
ENDCHAR
STARTCHAR aacute
ENCODING 225
SWIDTH 635 0
DWIDTH 6 0
BBX 5 5 0 1
BITMAP
20
70
70
90
78
ENDCHAR
STARTCHAR acircumflex
ENCODING 226
SWIDTH 635 0
DWIDTH 6 0
BBX 5 5 0 1
BITMAP
30
70
70
90
78
ENDCHAR
STARTCHAR abreve
ENCODING 227
SWIDTH 635 0
DWIDTH 6 0
BBX 5 5 0 1
BITMAP
30
70
70
90
78
ENDCHAR
STARTCHAR adieresis
ENCODING 228
SWIDTH 635 0
DWIDTH 6 0
BBX 5 5 0 1
BITMAP
50
70
70
90
78
ENDCHAR
STARTCHAR lacute
ENCODING 229
SWIDTH 635 0
DWIDTH 6 0
BBX 3 7 1 1
BITMAP
40
00
40
40
40
40
e0
ENDCHAR
STARTCHAR cacute
ENCODING 230
SWIDTH 635 0
DWIDTH 6 0
BBX 5 5 0 1
BITMAP
20
70
88
80
70
ENDCHAR
STARTCHAR ccedilla
ENCODING 231
SWIDTH 635 0
DWIDTH 6 0
BBX 6 6 0 -1
BITMAP
70
88
80
78
30
20
ENDCHAR
STARTCHAR ccaron
ENCODING 232
SWIDTH 635 0
DWIDTH 6 0
BBX 5 5 0 1
BITMAP
10
70
88
80
70
ENDCHAR
STARTCHAR eacute
ENCODING 233
SWIDTH 635 0
DWIDTH 6 0
BBX 5 5 0 1
BITMAP
20
78
b8
c0
78
ENDCHAR
STARTCHAR eogonek
ENCODING 234
SWIDTH 635 0
DWIDTH 6 0
BBX 5 5 0 0
BITMAP
78
b8
c0
78
30
ENDCHAR
STARTCHAR edieresis
ENCODING 235
SWIDTH 635 0
DWIDTH 6 0
BBX 5 5 0 1
BITMAP
30
78
b8
c0
78
ENDCHAR
STARTCHAR ecaron
ENCODING 236
SWIDTH 635 0
DWIDTH 6 0
BBX 5 5 0 1
BITMAP
10
78
b8
c0
78
ENDCHAR
STARTCHAR iacute
ENCODING 237
SWIDTH 635 0
DWIDTH 6 0
BBX 3 5 1 1
BITMAP
40
c0
40
40
e0
ENDCHAR
STARTCHAR icircumflex
ENCODING 238
SWIDTH 635 0
DWIDTH 6 0
BBX 3 5 1 1
BITMAP
60
c0
40
40
e0
ENDCHAR
STARTCHAR dcaron
ENCODING 239
SWIDTH 635 0
DWIDTH 6 0
BBX 6 5 0 1
BITMAP
1c
78
88
88
78
ENDCHAR
STARTCHAR dbar
ENCODING 240
SWIDTH 635 0
DWIDTH 6 0
BBX 5 5 0 1
BITMAP
38
78
88
88
78
ENDCHAR
STARTCHAR nacute
ENCODING 241
SWIDTH 635 0
DWIDTH 6 0
BBX 5 5 0 1
BITMAP
20
f0
48
48
d8
ENDCHAR
STARTCHAR ncaron
ENCODING 242
SWIDTH 635 0
DWIDTH 6 0
BBX 5 5 0 1
BITMAP
10
f0
48
48
d8
ENDCHAR
STARTCHAR oacute
ENCODING 243
SWIDTH 635 0
DWIDTH 6 0
BBX 5 5 0 1
BITMAP
20
70
88
88
70
ENDCHAR
STARTCHAR ocircumflex
ENCODING 244
SWIDTH 635 0
DWIDTH 6 0
BBX 5 5 0 1
BITMAP
30
70
88
88
70
ENDCHAR
STARTCHAR ohungarumlaut
ENCODING 245
SWIDTH 635 0
DWIDTH 6 0
BBX 5 5 0 1
BITMAP
50
70
88
88
70
ENDCHAR
STARTCHAR odieresis
ENCODING 246
SWIDTH 635 0
DWIDTH 6 0
BBX 5 5 0 1
BITMAP
30
70
88
88
70
ENDCHAR
STARTCHAR divide
ENCODING 247
SWIDTH 635 0
DWIDTH 6 0
BBX 1 4 2 2
BITMAP
80
00
00
80
ENDCHAR
STARTCHAR rcaron
ENCODING 248
SWIDTH 635 0
DWIDTH 6 0
BBX 4 5 1 1
BITMAP
20
f0
40
40
e0
ENDCHAR
STARTCHAR uring
ENCODING 249
SWIDTH 635 0
DWIDTH 6 0
BBX 5 6 0 1
BITMAP
20
20
d8
48
48
78
ENDCHAR
STARTCHAR uacute
ENCODING 250
SWIDTH 635 0
DWIDTH 6 0
BBX 5 5 0 1
BITMAP
20
d8
48
48
78
ENDCHAR
STARTCHAR uhungarumlaut
ENCODING 251
SWIDTH 635 0
DWIDTH 6 0
BBX 5 5 0 1
BITMAP
50
d8
48
48
78
ENDCHAR
STARTCHAR udieresis
ENCODING 252
SWIDTH 635 0
DWIDTH 6 0
BBX 5 5 0 1
BITMAP
30
d8
48
48
78
ENDCHAR
STARTCHAR yacute
ENCODING 253
SWIDTH 635 0
DWIDTH 6 0
BBX 5 7 0 -1
BITMAP
20
d8
50
50
20
20
c0
ENDCHAR
STARTCHAR tcedilla
ENCODING 254
SWIDTH 635 0
DWIDTH 6 0
BBX 4 7 1 -1
BITMAP
80
e0
80
80
70
20
60
ENDCHAR
STARTCHAR dotaccent
ENCODING 255
SWIDTH 635 0
DWIDTH 6 0
BBX 1 1 2 5
BITMAP
80
ENDCHAR
ENDFONT
